<mxfile host="app.diagrams.net" agent="Mozilla/5.0 (X11; Linux x86_64; rv:138.0) Gecko/20100101 Firefox/138.0" version="28.1.1">
  <diagram name="Page-1" id="ZnbLhF6lj6oXUgo7584e">
    <mxGraphModel dx="1895" dy="1740" grid="1" gridSize="10" guides="1" tooltips="1" connect="1" arrows="1" fold="1" page="1" pageScale="1" pageWidth="850" pageHeight="1100" math="0" shadow="0">
      <root>
        <mxCell id="0" />
        <mxCell id="1" parent="0" />
        <mxCell id="G6Nq_XdUGtBef1a63CYq-42" style="edgeStyle=orthogonalEdgeStyle;rounded=0;orthogonalLoop=1;jettySize=auto;html=1;" edge="1" parent="1" source="G6Nq_XdUGtBef1a63CYq-1" target="G6Nq_XdUGtBef1a63CYq-2">
          <mxGeometry relative="1" as="geometry" />
        </mxCell>
        <mxCell id="G6Nq_XdUGtBef1a63CYq-1" value="Start" style="strokeWidth=2;html=1;shape=mxgraph.flowchart.start_1;whiteSpace=wrap;" vertex="1" parent="1">
          <mxGeometry x="-560" y="240" width="80" height="50" as="geometry" />
        </mxCell>
        <mxCell id="G6Nq_XdUGtBef1a63CYq-46" style="edgeStyle=orthogonalEdgeStyle;rounded=0;orthogonalLoop=1;jettySize=auto;html=1;" edge="1" parent="1" source="G6Nq_XdUGtBef1a63CYq-2" target="G6Nq_XdUGtBef1a63CYq-44">
          <mxGeometry relative="1" as="geometry" />
        </mxCell>
        <mxCell id="G6Nq_XdUGtBef1a63CYq-47" style="edgeStyle=orthogonalEdgeStyle;rounded=0;orthogonalLoop=1;jettySize=auto;html=1;" edge="1" parent="1" source="G6Nq_XdUGtBef1a63CYq-2" target="G6Nq_XdUGtBef1a63CYq-45">
          <mxGeometry relative="1" as="geometry" />
        </mxCell>
        <mxCell id="G6Nq_XdUGtBef1a63CYq-2" value="&lt;div&gt;t_soll=25&lt;/div&gt;&lt;div&gt;h_soll=70&lt;br&gt;CO2_max=...&lt;/div&gt;fan_base_rpm=..." style="strokeWidth=2;html=1;shape=mxgraph.flowchart.stored_data;whiteSpace=wrap;" vertex="1" parent="1">
          <mxGeometry x="-430" y="227.5" width="150" height="75" as="geometry" />
        </mxCell>
        <mxCell id="G6Nq_XdUGtBef1a63CYq-10" style="edgeStyle=orthogonalEdgeStyle;rounded=0;orthogonalLoop=1;jettySize=auto;html=1;" edge="1" parent="1" source="G6Nq_XdUGtBef1a63CYq-6" target="G6Nq_XdUGtBef1a63CYq-8">
          <mxGeometry relative="1" as="geometry" />
        </mxCell>
        <mxCell id="G6Nq_XdUGtBef1a63CYq-6" value="read temperature" style="verticalLabelPosition=middle;verticalAlign=middle;html=1;shape=process;whiteSpace=wrap;rounded=1;size=0.14;arcSize=6;labelPosition=center;align=center;" vertex="1" parent="1">
          <mxGeometry x="350" y="110" width="100" height="60" as="geometry" />
        </mxCell>
        <mxCell id="G6Nq_XdUGtBef1a63CYq-14" style="edgeStyle=orthogonalEdgeStyle;rounded=0;orthogonalLoop=1;jettySize=auto;html=1;" edge="1" parent="1" source="G6Nq_XdUGtBef1a63CYq-8" target="G6Nq_XdUGtBef1a63CYq-12">
          <mxGeometry relative="1" as="geometry">
            <mxPoint x="371" y="30" as="sourcePoint" />
            <mxPoint x="291" y="30" as="targetPoint" />
          </mxGeometry>
        </mxCell>
        <mxCell id="G6Nq_XdUGtBef1a63CYq-16" value="t &amp;gt; (t_soll + t_soll*0.05)" style="edgeLabel;html=1;align=center;verticalAlign=middle;resizable=0;points=[];" vertex="1" connectable="0" parent="G6Nq_XdUGtBef1a63CYq-14">
          <mxGeometry x="-0.275" y="1" relative="1" as="geometry">
            <mxPoint x="-12" y="-11" as="offset" />
          </mxGeometry>
        </mxCell>
        <mxCell id="G6Nq_XdUGtBef1a63CYq-15" style="edgeStyle=orthogonalEdgeStyle;rounded=0;orthogonalLoop=1;jettySize=auto;html=1;" edge="1" parent="1" source="G6Nq_XdUGtBef1a63CYq-8" target="G6Nq_XdUGtBef1a63CYq-13">
          <mxGeometry relative="1" as="geometry">
            <mxPoint x="260" y="-50" as="sourcePoint" />
          </mxGeometry>
        </mxCell>
        <mxCell id="G6Nq_XdUGtBef1a63CYq-18" value="t &amp;lt; (t_soll - t_soll * 0.05)" style="edgeLabel;html=1;align=center;verticalAlign=middle;resizable=0;points=[];" vertex="1" connectable="0" parent="G6Nq_XdUGtBef1a63CYq-15">
          <mxGeometry x="-0.5846" y="3" relative="1" as="geometry">
            <mxPoint x="-47" y="-13" as="offset" />
          </mxGeometry>
        </mxCell>
        <mxCell id="G6Nq_XdUGtBef1a63CYq-8" value="t" style="strokeWidth=2;html=1;shape=mxgraph.flowchart.decision;whiteSpace=wrap;" vertex="1" parent="1">
          <mxGeometry x="370" width="60" height="60" as="geometry" />
        </mxCell>
        <mxCell id="G6Nq_XdUGtBef1a63CYq-12" value="activate&lt;br&gt;cooling&lt;br&gt;element" style="verticalLabelPosition=middle;verticalAlign=middle;html=1;shape=process;whiteSpace=wrap;rounded=1;size=0.14;arcSize=6;labelPosition=center;align=center;" vertex="1" parent="1">
          <mxGeometry x="350" y="-180" width="100" height="60" as="geometry" />
        </mxCell>
        <mxCell id="G6Nq_XdUGtBef1a63CYq-13" value="activate&lt;br&gt;heat_mat" style="verticalLabelPosition=middle;verticalAlign=middle;html=1;shape=process;whiteSpace=wrap;rounded=1;size=0.14;arcSize=6;labelPosition=center;align=center;" vertex="1" parent="1">
          <mxGeometry x="110" width="100" height="60" as="geometry" />
        </mxCell>
        <mxCell id="G6Nq_XdUGtBef1a63CYq-22" style="edgeStyle=orthogonalEdgeStyle;rounded=0;orthogonalLoop=1;jettySize=auto;html=1;" edge="1" parent="1" source="G6Nq_XdUGtBef1a63CYq-19" target="G6Nq_XdUGtBef1a63CYq-21">
          <mxGeometry relative="1" as="geometry" />
        </mxCell>
        <mxCell id="G6Nq_XdUGtBef1a63CYq-19" value="read humidity" style="verticalLabelPosition=middle;verticalAlign=middle;html=1;shape=process;whiteSpace=wrap;rounded=1;size=0.14;arcSize=6;labelPosition=center;align=center;" vertex="1" parent="1">
          <mxGeometry x="540" y="230" width="100" height="60" as="geometry" />
        </mxCell>
        <mxCell id="G6Nq_XdUGtBef1a63CYq-25" style="edgeStyle=orthogonalEdgeStyle;rounded=0;orthogonalLoop=1;jettySize=auto;html=1;" edge="1" parent="1" source="G6Nq_XdUGtBef1a63CYq-21" target="G6Nq_XdUGtBef1a63CYq-24">
          <mxGeometry relative="1" as="geometry" />
        </mxCell>
        <mxCell id="G6Nq_XdUGtBef1a63CYq-26" value="h &amp;lt; (h_soll - h_soll*0.05)" style="edgeLabel;html=1;align=center;verticalAlign=middle;resizable=0;points=[];" vertex="1" connectable="0" parent="G6Nq_XdUGtBef1a63CYq-25">
          <mxGeometry x="0.0545" y="2" relative="1" as="geometry">
            <mxPoint as="offset" />
          </mxGeometry>
        </mxCell>
        <mxCell id="G6Nq_XdUGtBef1a63CYq-28" style="edgeStyle=orthogonalEdgeStyle;rounded=0;orthogonalLoop=1;jettySize=auto;html=1;" edge="1" parent="1" source="G6Nq_XdUGtBef1a63CYq-21" target="G6Nq_XdUGtBef1a63CYq-27">
          <mxGeometry relative="1" as="geometry" />
        </mxCell>
        <mxCell id="G6Nq_XdUGtBef1a63CYq-29" value="h &amp;gt; (h_soll + h_soll*0.05)" style="edgeLabel;html=1;align=center;verticalAlign=middle;resizable=0;points=[];" vertex="1" connectable="0" parent="G6Nq_XdUGtBef1a63CYq-28">
          <mxGeometry x="-0.2" relative="1" as="geometry">
            <mxPoint as="offset" />
          </mxGeometry>
        </mxCell>
        <mxCell id="G6Nq_XdUGtBef1a63CYq-38" style="edgeStyle=orthogonalEdgeStyle;rounded=0;orthogonalLoop=1;jettySize=auto;html=1;" edge="1" parent="1" source="G6Nq_XdUGtBef1a63CYq-21" target="G6Nq_XdUGtBef1a63CYq-40">
          <mxGeometry relative="1" as="geometry">
            <mxPoint x="800" y="650" as="targetPoint" />
            <Array as="points">
              <mxPoint x="840" y="265" />
              <mxPoint x="840" y="650" />
            </Array>
          </mxGeometry>
        </mxCell>
        <mxCell id="G6Nq_XdUGtBef1a63CYq-21" value="h" style="strokeWidth=2;html=1;shape=mxgraph.flowchart.decision;whiteSpace=wrap;" vertex="1" parent="1">
          <mxGeometry x="700" y="230" width="60" height="60" as="geometry" />
        </mxCell>
        <mxCell id="G6Nq_XdUGtBef1a63CYq-24" value="activate&lt;br&gt;humidifier" style="verticalLabelPosition=middle;verticalAlign=middle;html=1;shape=process;whiteSpace=wrap;rounded=1;size=0.14;arcSize=6;labelPosition=center;align=center;" vertex="1" parent="1">
          <mxGeometry x="680" y="80" width="100" height="60" as="geometry" />
        </mxCell>
        <mxCell id="G6Nq_XdUGtBef1a63CYq-58" style="edgeStyle=orthogonalEdgeStyle;rounded=0;orthogonalLoop=1;jettySize=auto;html=1;entryX=0.5;entryY=1;entryDx=0;entryDy=0;entryPerimeter=0;jumpStyle=arc;jumpSize=20;" edge="1" parent="1" source="G6Nq_XdUGtBef1a63CYq-27" target="G6Nq_XdUGtBef1a63CYq-48">
          <mxGeometry relative="1" as="geometry">
            <mxPoint x="305.29411764705884" y="360" as="targetPoint" />
            <Array as="points">
              <mxPoint x="730" y="560" />
              <mxPoint x="15" y="560" />
            </Array>
          </mxGeometry>
        </mxCell>
        <mxCell id="G6Nq_XdUGtBef1a63CYq-27" value="increase&lt;br&gt;fan rpm" style="verticalLabelPosition=middle;verticalAlign=middle;html=1;shape=process;whiteSpace=wrap;rounded=1;size=0.14;arcSize=6;labelPosition=center;align=center;" vertex="1" parent="1">
          <mxGeometry x="680" y="470" width="100" height="60" as="geometry" />
        </mxCell>
        <mxCell id="G6Nq_XdUGtBef1a63CYq-33" style="edgeStyle=orthogonalEdgeStyle;rounded=0;orthogonalLoop=1;jettySize=auto;html=1;" edge="1" parent="1" source="G6Nq_XdUGtBef1a63CYq-30" target="G6Nq_XdUGtBef1a63CYq-32">
          <mxGeometry relative="1" as="geometry" />
        </mxCell>
        <mxCell id="G6Nq_XdUGtBef1a63CYq-30" value="read&lt;br&gt;CO2" style="verticalLabelPosition=middle;verticalAlign=middle;html=1;shape=process;whiteSpace=wrap;rounded=1;size=0.14;arcSize=6;labelPosition=center;align=center;" vertex="1" parent="1">
          <mxGeometry x="351" y="360" width="100" height="60" as="geometry" />
        </mxCell>
        <mxCell id="G6Nq_XdUGtBef1a63CYq-34" style="edgeStyle=orthogonalEdgeStyle;rounded=0;orthogonalLoop=1;jettySize=auto;html=1;" edge="1" parent="1" source="G6Nq_XdUGtBef1a63CYq-32" target="G6Nq_XdUGtBef1a63CYq-27">
          <mxGeometry relative="1" as="geometry" />
        </mxCell>
        <mxCell id="G6Nq_XdUGtBef1a63CYq-35" value="CO2 &amp;gt; (CO2 - CO2_max*0.05)" style="edgeLabel;html=1;align=center;verticalAlign=middle;resizable=0;points=[];" vertex="1" connectable="0" parent="G6Nq_XdUGtBef1a63CYq-34">
          <mxGeometry x="-0.51" y="2" relative="1" as="geometry">
            <mxPoint x="28" y="-8" as="offset" />
          </mxGeometry>
        </mxCell>
        <mxCell id="G6Nq_XdUGtBef1a63CYq-39" style="edgeStyle=orthogonalEdgeStyle;rounded=0;orthogonalLoop=1;jettySize=auto;html=1;jumpStyle=gap;" edge="1" parent="1" source="G6Nq_XdUGtBef1a63CYq-32" target="G6Nq_XdUGtBef1a63CYq-40">
          <mxGeometry relative="1" as="geometry">
            <mxPoint x="660" y="650" as="targetPoint" />
            <Array as="points">
              <mxPoint x="401" y="650" />
            </Array>
          </mxGeometry>
        </mxCell>
        <mxCell id="G6Nq_XdUGtBef1a63CYq-32" value="CO2" style="strokeWidth=2;html=1;shape=mxgraph.flowchart.decision;whiteSpace=wrap;" vertex="1" parent="1">
          <mxGeometry x="371" y="470" width="60" height="60" as="geometry" />
        </mxCell>
        <mxCell id="G6Nq_XdUGtBef1a63CYq-36" value="decrease&lt;br&gt;fan rpm" style="verticalLabelPosition=middle;verticalAlign=middle;html=1;shape=process;whiteSpace=wrap;rounded=1;size=0.14;arcSize=6;labelPosition=center;align=center;" vertex="1" parent="1">
          <mxGeometry x="590" y="780" width="100" height="60" as="geometry" />
        </mxCell>
        <mxCell id="G6Nq_XdUGtBef1a63CYq-41" style="edgeStyle=orthogonalEdgeStyle;rounded=0;orthogonalLoop=1;jettySize=auto;html=1;" edge="1" parent="1" source="G6Nq_XdUGtBef1a63CYq-40" target="G6Nq_XdUGtBef1a63CYq-36">
          <mxGeometry relative="1" as="geometry" />
        </mxCell>
        <mxCell id="G6Nq_XdUGtBef1a63CYq-40" value="h&amp;nbsp; &amp;lt; h_soll&lt;br&gt;CO2 &amp;lt; CO2_max" style="strokeWidth=2;html=1;shape=mxgraph.flowchart.decision;whiteSpace=wrap;" vertex="1" parent="1">
          <mxGeometry x="580" y="600" width="120" height="110" as="geometry" />
        </mxCell>
        <mxCell id="G6Nq_XdUGtBef1a63CYq-49" style="edgeStyle=orthogonalEdgeStyle;rounded=0;orthogonalLoop=1;jettySize=auto;html=1;" edge="1" parent="1" source="G6Nq_XdUGtBef1a63CYq-44" target="G6Nq_XdUGtBef1a63CYq-48">
          <mxGeometry relative="1" as="geometry" />
        </mxCell>
        <mxCell id="G6Nq_XdUGtBef1a63CYq-44" value="activate&lt;br&gt;LED" style="verticalLabelPosition=middle;verticalAlign=middle;html=1;shape=process;whiteSpace=wrap;rounded=1;size=0.14;arcSize=6;labelPosition=center;align=center;" vertex="1" parent="1">
          <mxGeometry x="-190" y="180" width="100" height="60" as="geometry" />
        </mxCell>
        <mxCell id="G6Nq_XdUGtBef1a63CYq-45" value="activate&lt;br&gt;fan" style="verticalLabelPosition=middle;verticalAlign=middle;html=1;shape=process;whiteSpace=wrap;rounded=1;size=0.14;arcSize=6;labelPosition=center;align=center;" vertex="1" parent="1">
          <mxGeometry x="-190" y="290" width="100" height="60" as="geometry" />
        </mxCell>
        <mxCell id="G6Nq_XdUGtBef1a63CYq-51" style="edgeStyle=orthogonalEdgeStyle;rounded=0;orthogonalLoop=1;jettySize=auto;html=1;" edge="1" parent="1" source="G6Nq_XdUGtBef1a63CYq-48" target="G6Nq_XdUGtBef1a63CYq-6">
          <mxGeometry relative="1" as="geometry" />
        </mxCell>
        <mxCell id="G6Nq_XdUGtBef1a63CYq-52" style="edgeStyle=orthogonalEdgeStyle;rounded=0;orthogonalLoop=1;jettySize=auto;html=1;" edge="1" parent="1" source="G6Nq_XdUGtBef1a63CYq-48" target="G6Nq_XdUGtBef1a63CYq-19">
          <mxGeometry relative="1" as="geometry" />
        </mxCell>
        <mxCell id="G6Nq_XdUGtBef1a63CYq-53" style="edgeStyle=orthogonalEdgeStyle;rounded=0;orthogonalLoop=1;jettySize=auto;html=1;" edge="1" parent="1" source="G6Nq_XdUGtBef1a63CYq-48" target="G6Nq_XdUGtBef1a63CYq-30">
          <mxGeometry relative="1" as="geometry" />
        </mxCell>
        <mxCell id="G6Nq_XdUGtBef1a63CYq-48" value="" style="verticalLabelPosition=bottom;verticalAlign=top;html=1;shape=mxgraph.flowchart.or;" vertex="1" parent="1">
          <mxGeometry x="-20" y="225" width="70" height="70" as="geometry" />
        </mxCell>
        <mxCell id="G6Nq_XdUGtBef1a63CYq-50" style="edgeStyle=orthogonalEdgeStyle;rounded=0;orthogonalLoop=1;jettySize=auto;html=1;entryX=0;entryY=0.5;entryDx=0;entryDy=0;entryPerimeter=0;" edge="1" parent="1" source="G6Nq_XdUGtBef1a63CYq-45" target="G6Nq_XdUGtBef1a63CYq-48">
          <mxGeometry relative="1" as="geometry" />
        </mxCell>
        <mxCell id="G6Nq_XdUGtBef1a63CYq-54" style="edgeStyle=orthogonalEdgeStyle;rounded=0;orthogonalLoop=1;jettySize=auto;html=1;entryX=0.5;entryY=0;entryDx=0;entryDy=0;entryPerimeter=0;" edge="1" parent="1" source="G6Nq_XdUGtBef1a63CYq-13" target="G6Nq_XdUGtBef1a63CYq-48">
          <mxGeometry relative="1" as="geometry" />
        </mxCell>
        <mxCell id="G6Nq_XdUGtBef1a63CYq-55" style="edgeStyle=orthogonalEdgeStyle;rounded=0;orthogonalLoop=1;jettySize=auto;html=1;entryX=0.5;entryY=0;entryDx=0;entryDy=0;entryPerimeter=0;" edge="1" parent="1" source="G6Nq_XdUGtBef1a63CYq-12" target="G6Nq_XdUGtBef1a63CYq-48">
          <mxGeometry relative="1" as="geometry" />
        </mxCell>
        <mxCell id="G6Nq_XdUGtBef1a63CYq-56" style="edgeStyle=orthogonalEdgeStyle;rounded=0;orthogonalLoop=1;jettySize=auto;html=1;entryX=0.5;entryY=0;entryDx=0;entryDy=0;entryPerimeter=0;" edge="1" parent="1" source="G6Nq_XdUGtBef1a63CYq-24" target="G6Nq_XdUGtBef1a63CYq-48">
          <mxGeometry relative="1" as="geometry">
            <Array as="points">
              <mxPoint x="730" y="-260" />
              <mxPoint x="15" y="-260" />
            </Array>
          </mxGeometry>
        </mxCell>
        <mxCell id="G6Nq_XdUGtBef1a63CYq-57" style="edgeStyle=orthogonalEdgeStyle;rounded=0;orthogonalLoop=1;jettySize=auto;html=1;entryX=0.5;entryY=1;entryDx=0;entryDy=0;entryPerimeter=0;" edge="1" parent="1" source="G6Nq_XdUGtBef1a63CYq-36" target="G6Nq_XdUGtBef1a63CYq-48">
          <mxGeometry relative="1" as="geometry" />
        </mxCell>
      </root>
    </mxGraphModel>
  </diagram>
</mxfile>
